<mxfile host="app.diagrams.net" modified="2024-01-07T13:26:01.704Z" agent="Mozilla/5.0 (Windows NT 10.0; Win64; x64) AppleWebKit/537.36 (KHTML, like Gecko) Chrome/120.0.0.0 Safari/537.36" etag="uhbdPUx7AoN6ePIYw7Sm" version="22.1.17" type="device">
  <diagram name="第 1 页" id="9zTovSs2VqhJ5_joxdd5">
    <mxGraphModel dx="862" dy="1552" grid="1" gridSize="10" guides="1" tooltips="1" connect="1" arrows="1" fold="1" page="1" pageScale="1" pageWidth="827" pageHeight="1169" math="0" shadow="0">
      <root>
        <mxCell id="0" />
        <mxCell id="1" parent="0" />
        <mxCell id="aG9HuQ64DjRRh5BSDYLo-17" style="edgeStyle=orthogonalEdgeStyle;rounded=0;orthogonalLoop=1;jettySize=auto;html=1;exitX=1;exitY=1;exitDx=0;exitDy=0;exitPerimeter=0;entryX=0;entryY=0.5;entryDx=0;entryDy=0;" edge="1" parent="1" source="aG9HuQ64DjRRh5BSDYLo-1" target="aG9HuQ64DjRRh5BSDYLo-16">
          <mxGeometry relative="1" as="geometry" />
        </mxCell>
        <mxCell id="aG9HuQ64DjRRh5BSDYLo-1" value="&lt;font style=&quot;vertical-align: inherit;&quot;&gt;&lt;font style=&quot;vertical-align: inherit;&quot;&gt;&amp;nbsp;商家&lt;/font&gt;&lt;/font&gt;" style="shape=umlActor;verticalLabelPosition=bottom;verticalAlign=top;html=1;outlineConnect=0;" vertex="1" parent="1">
          <mxGeometry x="220" y="-290" width="30" height="60" as="geometry" />
        </mxCell>
        <mxCell id="aG9HuQ64DjRRh5BSDYLo-2" style="edgeStyle=orthogonalEdgeStyle;rounded=0;orthogonalLoop=1;jettySize=auto;html=1;exitX=0.5;exitY=0.5;exitDx=0;exitDy=0;entryX=0;entryY=0.5;entryDx=0;entryDy=0;exitPerimeter=0;" edge="1" parent="1" source="aG9HuQ64DjRRh5BSDYLo-1" target="aG9HuQ64DjRRh5BSDYLo-10">
          <mxGeometry relative="1" as="geometry">
            <mxPoint x="280" y="-250" as="sourcePoint" />
          </mxGeometry>
        </mxCell>
        <mxCell id="aG9HuQ64DjRRh5BSDYLo-3" style="edgeStyle=orthogonalEdgeStyle;rounded=0;orthogonalLoop=1;jettySize=auto;html=1;entryX=0;entryY=0.5;entryDx=0;entryDy=0;" edge="1" parent="1" source="aG9HuQ64DjRRh5BSDYLo-1" target="aG9HuQ64DjRRh5BSDYLo-5">
          <mxGeometry relative="1" as="geometry">
            <mxPoint x="262.42640687119297" y="-278.2842712474619" as="sourcePoint" />
          </mxGeometry>
        </mxCell>
        <mxCell id="aG9HuQ64DjRRh5BSDYLo-4" style="edgeStyle=orthogonalEdgeStyle;rounded=0;orthogonalLoop=1;jettySize=auto;html=1;exitX=0.5;exitY=0.5;exitDx=0;exitDy=0;entryX=0;entryY=0.5;entryDx=0;entryDy=0;exitPerimeter=0;" edge="1" parent="1" source="aG9HuQ64DjRRh5BSDYLo-1" target="aG9HuQ64DjRRh5BSDYLo-11">
          <mxGeometry relative="1" as="geometry">
            <mxPoint x="262.42640687119297" y="-221.7157287525381" as="sourcePoint" />
          </mxGeometry>
        </mxCell>
        <mxCell id="aG9HuQ64DjRRh5BSDYLo-5" value="&lt;font style=&quot;vertical-align: inherit;&quot;&gt;&lt;font style=&quot;vertical-align: inherit;&quot;&gt;登入系統&lt;/font&gt;&lt;/font&gt;" style="ellipse;whiteSpace=wrap;html=1;" vertex="1" parent="1">
          <mxGeometry x="330" y="-440" width="120" height="80" as="geometry" />
        </mxCell>
        <mxCell id="aG9HuQ64DjRRh5BSDYLo-6" value="&lt;font style=&quot;vertical-align: inherit;&quot;&gt;&lt;font style=&quot;vertical-align: inherit;&quot;&gt;修改餐點&lt;/font&gt;&lt;/font&gt;" style="ellipse;whiteSpace=wrap;html=1;" vertex="1" parent="1">
          <mxGeometry x="560" y="-370" width="120" height="80" as="geometry" />
        </mxCell>
        <mxCell id="aG9HuQ64DjRRh5BSDYLo-7" style="edgeStyle=orthogonalEdgeStyle;rounded=0;orthogonalLoop=1;jettySize=auto;html=1;exitX=1;exitY=0;exitDx=0;exitDy=0;entryX=0;entryY=0.5;entryDx=0;entryDy=0;" edge="1" parent="1" source="aG9HuQ64DjRRh5BSDYLo-10" target="aG9HuQ64DjRRh5BSDYLo-6">
          <mxGeometry relative="1" as="geometry" />
        </mxCell>
        <mxCell id="aG9HuQ64DjRRh5BSDYLo-8" style="edgeStyle=orthogonalEdgeStyle;rounded=0;orthogonalLoop=1;jettySize=auto;html=1;exitX=1;exitY=1;exitDx=0;exitDy=0;entryX=0;entryY=0.5;entryDx=0;entryDy=0;" edge="1" parent="1" source="aG9HuQ64DjRRh5BSDYLo-10" target="aG9HuQ64DjRRh5BSDYLo-12">
          <mxGeometry relative="1" as="geometry" />
        </mxCell>
        <mxCell id="aG9HuQ64DjRRh5BSDYLo-9" style="edgeStyle=orthogonalEdgeStyle;rounded=0;orthogonalLoop=1;jettySize=auto;html=1;exitX=0.5;exitY=0;exitDx=0;exitDy=0;entryX=0;entryY=0.5;entryDx=0;entryDy=0;" edge="1" parent="1" source="aG9HuQ64DjRRh5BSDYLo-10" target="aG9HuQ64DjRRh5BSDYLo-13">
          <mxGeometry relative="1" as="geometry" />
        </mxCell>
        <mxCell id="aG9HuQ64DjRRh5BSDYLo-10" value="&lt;font style=&quot;vertical-align: inherit;&quot;&gt;&lt;font style=&quot;vertical-align: inherit;&quot;&gt;&lt;font style=&quot;vertical-align: inherit;&quot;&gt;&lt;font style=&quot;vertical-align: inherit;&quot;&gt;訂餐信息&lt;/font&gt;&lt;/font&gt;&lt;/font&gt;&lt;/font&gt;" style="ellipse;whiteSpace=wrap;html=1;" vertex="1" parent="1">
          <mxGeometry x="414" y="-290" width="120" height="80" as="geometry" />
        </mxCell>
        <mxCell id="aG9HuQ64DjRRh5BSDYLo-11" value="&lt;font style=&quot;vertical-align: inherit;&quot;&gt;&lt;font style=&quot;vertical-align: inherit;&quot;&gt;&lt;font style=&quot;vertical-align: inherit;&quot;&gt;&lt;font style=&quot;vertical-align: inherit;&quot;&gt;核實&lt;/font&gt;&lt;/font&gt;&lt;/font&gt;&lt;/font&gt;" style="ellipse;whiteSpace=wrap;html=1;" vertex="1" parent="1">
          <mxGeometry x="350" y="-140" width="120" height="80" as="geometry" />
        </mxCell>
        <mxCell id="aG9HuQ64DjRRh5BSDYLo-12" value="&lt;font style=&quot;vertical-align: inherit;&quot;&gt;&lt;font style=&quot;vertical-align: inherit;&quot;&gt;刪除餐點&lt;/font&gt;&lt;/font&gt;" style="ellipse;whiteSpace=wrap;html=1;" vertex="1" parent="1">
          <mxGeometry x="590" y="-190" width="120" height="80" as="geometry" />
        </mxCell>
        <mxCell id="aG9HuQ64DjRRh5BSDYLo-13" value="&lt;font style=&quot;vertical-align: inherit;&quot;&gt;&lt;font style=&quot;vertical-align: inherit;&quot;&gt;&lt;font style=&quot;vertical-align: inherit;&quot;&gt;&lt;font style=&quot;vertical-align: inherit;&quot;&gt;新增餐點&lt;/font&gt;&lt;/font&gt;&lt;/font&gt;&lt;/font&gt;" style="ellipse;whiteSpace=wrap;html=1;" vertex="1" parent="1">
          <mxGeometry x="570" y="-530" width="120" height="80" as="geometry" />
        </mxCell>
        <mxCell id="aG9HuQ64DjRRh5BSDYLo-16" value="&lt;font style=&quot;vertical-align: inherit;&quot;&gt;&lt;font style=&quot;vertical-align: inherit;&quot;&gt;&lt;br&gt;配送&lt;/font&gt;&lt;/font&gt;" style="ellipse;whiteSpace=wrap;html=1;" vertex="1" parent="1">
          <mxGeometry x="340" y="-20" width="120" height="80" as="geometry" />
        </mxCell>
      </root>
    </mxGraphModel>
  </diagram>
</mxfile>
